<?xml version="1.0" standalone="no"?>
<!DOCTYPE svg PUBLIC "-//W3C//DTD SVG 20010904//EN"
 "http://www.w3.org/TR/2001/REC-SVG-20010904/DTD/svg10.dtd">
<svg version="1.0" xmlns="http://www.w3.org/2000/svg"
 width="512.000000pt" height="512.000000pt" viewBox="0 0 512.000000 512.000000"
 preserveAspectRatio="xMidYMid meet">
<metadata>
Created by potrace 1.11, written by Peter Selinger 2001-2013
</metadata>
<g transform="translate(0.000000,512.000000) scale(0.100000,-0.100000)"
fill="#000000" stroke="none">
<path d="M2379 5116 c-2 -2 -39 -6 -81 -10 -43 -4 -83 -8 -90 -11 -7 -2 -31
-6 -53 -9 -33 -4 -128 -22 -215 -41 -8 -2 -53 -15 -100 -29 -372 -109 -730
-310 -999 -561 -124 -116 -158 -151 -252 -265 -230 -277 -394 -587 -493 -935
-14 -49 -28 -103 -31 -120 -25 -129 -47 -260 -53 -315 -9 -86 -8 -460 1 -530
16 -120 40 -250 62 -350 18 -77 85 -279 120 -365 14 -34 57 -120 133 -270 48
-95 215 -329 311 -438 89 -100 235 -236 356 -332 28 -22 52 -42 55 -45 14 -15
167 -111 255 -159 286 -159 519 -241 840 -296 136 -24 222 -30 420 -30 161 0
271 6 345 19 14 3 43 7 65 11 77 11 228 45 299 67 39 12 76 23 81 24 87 21
359 144 494 224 73 42 215 133 221 140 3 3 48 40 100 82 353 282 639 683 795
1113 26 72 49 137 50 145 2 8 15 60 28 115 23 94 37 160 42 195 1 8 8 56 16
105 9 60 13 170 13 330 -1 212 -4 257 -27 390 -69 396 -196 717 -408 1030
-262 387 -645 709 -1076 903 -78 35 -243 98 -283 107 -8 2 -46 13 -85 24 -70
20 -243 55 -322 66 -23 3 -57 8 -75 11 -39 6 -453 15 -459 10z m-183 -1182
c100 -42 168 -138 210 -299 19 -72 25 -270 11 -328 -33 -128 -120 -253 -209
-298 -140 -72 -351 73 -430 296 -42 116 -52 295 -23 405 29 113 94 182 208
221 67 23 182 24 233 3z m987 -12 c79 -35 123 -77 159 -150 32 -64 33 -70 33
-192 0 -164 -5 -203 -32 -274 -48 -125 -120 -215 -217 -274 -104 -64 -203 -53
-285 30 -99 100 -146 218 -150 375 -4 170 65 376 151 448 12 11 43 30 68 43
39 20 57 22 135 19 65 -2 103 -9 138 -25z m-1924 -647 c88 -19 206 -108 270
-205 78 -116 108 -210 107 -335 -2 -116 -25 -191 -80 -252 -40 -44 -43 -45
-112 -50 -58 -5 -83 -1 -130 17 -32 12 -66 28 -75 36 -9 8 -18 12 -21 9 -9 -9
-137 119 -168 168 -87 137 -121 310 -85 432 27 96 91 167 161 179 14 3 28 7
30 9 6 5 63 1 103 -8z m2733 0 c45 -9 121 -73 142 -118 49 -108 43 -271 -15
-402 -54 -121 -155 -230 -265 -285 -63 -31 -77 -34 -158 -35 l-88 0 -42 46
c-22 25 -50 70 -60 99 -22 61 -29 197 -14 263 5 23 11 49 13 59 5 24 59 132
68 136 4 2 7 9 7 16 0 21 107 132 160 166 88 57 163 73 252 55z m-1297 -520
c177 -31 343 -154 431 -320 73 -138 108 -169 233 -210 54 -18 146 -63 177 -87
103 -79 186 -194 214 -298 26 -93 17 -257 -16 -304 -8 -11 -14 -28 -14 -38 0
-10 -4 -18 -10 -18 -5 0 -10 -5 -10 -12 0 -24 -81 -117 -142 -163 -134 -101
-260 -140 -428 -132 -122 5 -145 10 -220 39 -64 26 -104 48 -179 100 -114 80
-236 79 -345 -1 -137 -101 -228 -132 -396 -137 -124 -3 -164 2 -268 39 -171
60 -331 238 -361 402 -31 168 30 349 160 469 72 67 132 102 241 141 119 42
165 81 224 195 71 139 192 252 323 301 58 22 69 25 136 38 46 8 192 6 250 -4z"/>
</g>
</svg>
